<mxfile host="app.diagrams.net" modified="2024-02-20T14:46:30.562Z" agent="Mozilla/5.0 (Windows NT 10.0; Win64; x64; rv:122.0) Gecko/20100101 Firefox/122.0" etag="r3DkkTO8QqkOKDYjo6uw" version="23.1.1" type="github">
  <diagram name="PÃ¡gina-1" id="SFPy9oiZgg9uM9dFJnWj">
    <mxGraphModel dx="1963" dy="1015" grid="1" gridSize="10" guides="1" tooltips="1" connect="1" arrows="1" fold="1" page="1" pageScale="1" pageWidth="3300" pageHeight="2339" math="0" shadow="0">
      <root>
        <mxCell id="0" />
        <mxCell id="1" parent="0" />
      </root>
    </mxGraphModel>
  </diagram>
</mxfile>
